Oxygen-Sans.ufo
<glyph name="ampersand" format="1">
  <advance width="1288"/>
  <unicode hex="0026"/>
  <outline>
    <contour>
      <point x="483" y="846" type="curve"/>
      <point x="368" y="980"/>
      <point x="331" y="1062"/>
      <point x="331" y="1156" type="curve" smooth="yes"/>
      <point x="331" y="1274"/>
      <point x="434" y="1357"/>
      <point x="571" y="1354" type="curve" smooth="yes"/>
      <point x="700" y="1351"/>
      <point x="767" y="1279"/>
      <point x="767" y="1159" type="curve" smooth="yes"/>
      <point x="767" y="1002"/>
      <point x="630" y="924"/>
    </contour>
    <contour>
      <point x="539" y="114" type="curve" smooth="yes"/>
      <point x="349" y="114"/>
      <point x="237.0" y="213.0"/>
      <point x="223.0" y="358.0" type="curve" smooth="yes"/>
      <point x="207.0" y="528.0"/>
      <point x="282.0" y="608.0"/>
      <point x="445.0" y="695.0" type="curve"/>
      <point x="1171" y="-20" type="line"/>
      <point x="1260" y="77" type="line"/>
      <point x="566.0" y="755.0" type="line"/>
      <point x="738.0" y="849.0"/>
      <point x="916.0" y="946.0"/>
      <point x="916.0" y="1164.0" type="curve" smooth="yes"/>
      <point x="916.0" y="1366.0"/>
      <point x="771.0" y="1473.0"/>
      <point x="569.0" y="1476.0" type="curve" smooth="yes"/>
      <point x="345.0" y="1479.0"/>
      <point x="188.0" y="1348.0"/>
      <point x="188.0" y="1156.0" type="curve" smooth="yes"/>
      <point x="188.0" y="1034.0"/>
      <point x="229" y="924"/>
      <point x="363" y="784" type="curve"/>
      <point x="156" y="682"/>
      <point x="45.0" y="580.0"/>
      <point x="63.0" y="342.0" type="curve" smooth="yes"/>
      <point x="78.0" y="141.0"/>
      <point x="251" y="-20"/>
      <point x="513" y="-20" type="curve" smooth="yes"/>
      <point x="986" y="-20"/>
      <point x="1180" y="451"/>
      <point x="1300" y="692" type="curve"/>
      <point x="1203" y="760" type="line"/>
      <point x="1194" y="760" type="line"/>
      <point x="922" y="236"/>
      <point x="767" y="114"/>
    </contour>
  </outline>
</glyph>
<glyph name="five" format="1">
  <advance width="1102"/>
  <unicode hex="0035"/>
  <outline>
    <contour>
      <point x="1012" y="461" type="curve"/>
      <point x="1016" y="793"/>
      <point x="815" y="935"/>
      <point x="628" y="935" type="curve"/>
      <point x="465" y="930"/>
      <point x="397" y="889"/>
      <point x="323" y="773" type="curve"/>
      <point x="351" y="771" type="line"/>
      <point x="412" y="1321" type="line"/>
      <point x="924" y="1321" type="line"/>
      <point x="942" y="1456" type="line"/>
      <point x="271" y="1456" type="line"/>
      <point x="210" y="702" type="line"/>
      <point x="331" y="680" type="line"/>
      <point x="400" y="766"/>
      <point x="500" y="809"/>
      <point x="597" y="809" type="curve" smooth="yes"/>
      <point x="767" y="809"/>
      <point x="854" y="660"/>
      <point x="852" y="454" type="curve" smooth="yes"/>
      <point x="850" y="241"/>
      <point x="723" y="124"/>
      <point x="544" y="124" type="curve" smooth="yes"/>
      <point x="393" y="124"/>
      <point x="324" y="181"/>
      <point x="243" y="290" type="curve"/>
      <point x="228" y="290" type="line"/>
      <point x="129" y="196" type="line"/>
      <point x="186" y="100"/>
      <point x="320" y="-20"/>
      <point x="542" y="-20" type="curve" smooth="yes"/>
      <point x="796" y="-20"/>
      <point x="1012" y="143"/>
    </contour>
  </outline>
</glyph>
<glyph name="B" format="1">
  <advance width="1254.06533764"/>
  <unicode hex="0042"/>
  <outline>
    <contour>
      <point x="136" y="7" type="line"/>
      <point x="860" y="-56"/>
      <point x="1155" y="48"/>
      <point x="1160" y="423" type="curve" smooth="yes"/>
      <point x="1163" y="623"/>
      <point x="1063" y="763"/>
      <point x="796" y="804" type="curve"/>
      <point x="796" y="772" type="line"/>
      <point x="1036" y="826"/>
      <point x="1107" y="954"/>
      <point x="1107" y="1099" type="curve" smooth="yes"/>
      <point x="1107" y="1266"/>
      <point x="1100" y="1561"/>
      <point x="136" y="1432" type="curve"/>
    </contour>
    <contour>
      <point x="272" y="135" type="curve"/>
      <point x="312" y="90" type="line"/>
      <point x="312" y="776" type="line"/>
      <point x="253" y="723" type="line"/>
      <point x="583" y="723" type="line" smooth="yes"/>
      <point x="865" y="723"/>
      <point x="986" y="635"/>
      <point x="986" y="424" type="curve" smooth="yes"/>
      <point x="986" y="237"/>
      <point x="949" y="81"/>
    </contour>
    <contour>
      <point x="256" y="849" type="line"/>
      <point x="312" y="804" type="line"/>
      <point x="312" y="1372" type="line"/>
      <point x="252" y="1315" type="line"/>
      <point x="798" y="1379"/>
      <point x="950" y="1296"/>
      <point x="950" y="1089" type="curve" smooth="yes"/>
      <point x="950" y="886"/>
      <point x="784" y="849"/>
      <point x="594" y="849" type="curve" smooth="yes"/>
    </contour>
    <contour>
      <point x="653" y="0" type="move" name="bot"/>
    </contour>
    <contour>
      <point x="604" y="1456" type="move" name="top"/>
    </contour>
  </outline>
</glyph>
<glyph name="K" format="1">
  <advance width="1264"/>
  <unicode hex="004B"/>
  <outline>
    <contour>
      <point x="136" y="0" type="line"/>
      <point x="312" y="0" type="line"/>
      <point x="312" y="650" type="line"/>
      <point x="266" y="539" type="line"/>
      <point x="532" y="787" type="line"/>
      <point x="460" y="786" type="line"/>
      <point x="1062" y="0" type="line"/>
      <point x="1260" y="0" type="line"/>
      <point x="1260" y="20" type="line"/>
      <point x="577" y="896" type="line"/>
      <point x="577" y="800" type="line"/>
      <point x="1224" y="1434" type="line"/>
      <point x="1224" y="1456" type="line"/>
      <point x="1032" y="1456" type="line"/>
      <point x="260" y="696" type="line"/>
      <point x="312" y="695" type="line"/>
      <point x="312" y="1456" type="line"/>
      <point x="136" y="1456" type="line"/>
    </contour>
    <contour>
      <point x="613" y="0" type="move" name="bot"/>
    </contour>
    <contour>
      <point x="610" y="1456" type="move" name="top"/>
    </contour>
  </outline>
</glyph>
<glyph name="L" format="1">
  <advance width="1054"/>
  <unicode hex="004C"/>
  <outline>
    <contour>
      <point x="136" y="0" type="line"/>
      <point x="1018" y="0" type="line"/>
      <point x="1022" y="137" type="line"/>
      <point x="242" y="137" type="line"/>
      <point x="312" y="72" type="line"/>
      <point x="312" y="1456" type="line"/>
      <point x="136" y="1456" type="line"/>
    </contour>
    <contour>
      <point x="573" y="0" type="move" name="bot"/>
    </contour>
    <contour>
      <point x="687" y="850" type="move" name="mid"/>
    </contour>
    <contour>
      <point x="380" y="1456" type="move" name="top"/>
    </contour>
    <contour>
      <point x="226" y="795" type="move" name="mid2"/>
    </contour>
  </outline>
</glyph>
<glyph name="M" format="1">
  <advance width="1706"/>
  <unicode hex="004D"/>
  <outline>
    <contour>
      <point x="136" y="0" type="line"/>
      <point x="302" y="0" type="line"/>
      <point x="302" y="471" type="line"/>
      <point x="311" y="924" type="line"/>
      <point x="311" y="1314" type="line"/>
      <point x="281" y="1304" type="line"/>
      <point x="777" y="167" type="line"/>
      <point x="928" y="167" type="line"/>
      <point x="1433" y="1303" type="line"/>
      <point x="1397" y="1315" type="line"/>
      <point x="1397" y="928" type="line"/>
      <point x="1406" y="474" type="line"/>
      <point x="1406" y="0" type="line"/>
      <point x="1570" y="0" type="line"/>
      <point x="1570" y="472" type="line"/>
      <point x="1546" y="1456" type="line"/>
      <point x="1336" y="1456" type="line"/>
      <point x="832" y="318" type="line"/>
      <point x="876" y="318" type="line"/>
      <point x="376" y="1456" type="line"/>
      <point x="160" y="1456" type="line"/>
      <point x="136" y="472" type="line"/>
    </contour>
    <contour>
      <point x="868" y="1456" type="move" name="top"/>
    </contour>
  </outline>
</glyph>
<glyph name="N" format="1">
  <advance width="1373"/>
  <unicode hex="004E"/>
  <outline>
    <contour>
      <point x="136" y="0" type="line"/>
      <point x="295" y="0" type="line"/>
      <point x="295" y="761" type="line"/>
      <point x="276" y="1302" type="line"/>
      <point x="238" y="1288" type="line"/>
      <point x="1052" y="0" type="line"/>
      <point x="1237" y="0" type="line"/>
      <point x="1237" y="1456" type="line"/>
      <point x="1079" y="1456" type="line"/>
      <point x="1079" y="644" type="line"/>
      <point x="1091" y="155" type="line"/>
      <point x="1122" y="170" type="line"/>
      <point x="314" y="1456" type="line"/>
      <point x="136" y="1456" type="line"/>
    </contour>
    <contour>
      <point x="721" y="1456" type="move" name="top"/>
    </contour>
  </outline>
</glyph>
<glyph name="Q" format="1">
  <advance width="1470"/>
  <unicode hex="0051"/>
  <outline>
    <contour>
      <point x="1097" y="-431" type="line"/>
      <point x="1210" y="-352" type="line"/>
      <point x="960" y="10" type="line"/>
      <point x="1249" y="95"/>
      <point x="1383" y="358"/>
      <point x="1383" y="718" type="curve" smooth="yes"/>
      <point x="1383" y="1181"/>
      <point x="1168" y="1476"/>
      <point x="739" y="1476" type="curve" smooth="yes"/>
      <point x="301" y="1476"/>
      <point x="87" y="1184"/>
      <point x="87" y="721" type="curve" smooth="yes"/>
      <point x="87" y="269"/>
      <point x="291" y="-20"/>
      <point x="738" y="-20" type="curve" smooth="yes"/>
      <point x="763" y="-20"/>
      <point x="787" y="-19"/>
      <point x="811" y="-17" type="curve"/>
    </contour>
    <contour>
      <point x="736" y="122" type="curve" smooth="yes"/>
      <point x="386" y="122"/>
      <point x="264" y="365"/>
      <point x="264" y="720" type="curve" smooth="yes"/>
      <point x="264" y="1091"/>
      <point x="398" y="1334"/>
      <point x="738" y="1334" type="curve" smooth="yes"/>
      <point x="1079" y="1334"/>
      <point x="1207" y="1089"/>
      <point x="1207" y="720" type="curve" smooth="yes"/>
      <point x="1207" y="365"/>
      <point x="1086" y="122"/>
    </contour>
  </outline>
</glyph>
<glyph name="R" format="1">
  <advance width="1249"/>
  <unicode hex="0052"/>
  <outline>
    <contour>
      <point x="253" y="1316" type="line"/>
      <point x="889" y="1380"/>
      <point x="990.81369863" y="1286.97534247"/>
      <point x="992" y="1077" type="curve" smooth="yes"/>
      <point x="994" y="822"/>
      <point x="840" y="762"/>
      <point x="262" y="802" type="curve"/>
      <point x="312" y="755" type="line"/>
      <point x="312" y="1372" type="line"/>
    </contour>
    <contour>
      <point x="136" y="0" type="line"/>
      <point x="312" y="0" type="line"/>
      <point x="312" y="728" type="line"/>
      <point x="262" y="674" type="line"/>
      <point x="396" y="661"/>
      <point x="578" y="662"/>
      <point x="704" y="669" type="curve"/>
      <point x="643" y="709" type="line"/>
      <point x="1002" y="0" type="line"/>
      <point x="1188" y="0" type="line"/>
      <point x="1188" y="20" type="line"/>
      <point x="824" y="717" type="line"/>
      <point x="801" y="679" type="line"/>
      <point x="1032" y="723"/>
      <point x="1159" y="850"/>
      <point x="1154" y="1086" type="curve" smooth="yes"/>
      <point x="1146.14977974" y="1426.17621145"/>
      <point x="901" y="1518"/>
      <point x="136" y="1432" type="curve"/>
    </contour>
    <contour>
      <point x="643" y="0" type="move" name="bot"/>
    </contour>
    <contour>
      <point x="634" y="1456" type="move" name="top"/>
    </contour>
  </outline>
</glyph>
<glyph name="U" format="1">
  <advance width="1306"/>
  <unicode hex="0055"/>
  <outline>
    <contour>
      <point x="653" y="-20" type="curve" smooth="yes"/>
      <point x="1037" y="-20"/>
      <point x="1201" y="217"/>
      <point x="1201" y="540" type="curve" smooth="yes"/>
      <point x="1201" y="1457" type="line"/>
      <point x="1025" y="1457" type="line"/>
      <point x="1025" y="546" type="line" smooth="yes"/>
      <point x="1025" y="271"/>
      <point x="916" y="123"/>
      <point x="653" y="123" type="curve" smooth="yes"/>
      <point x="381" y="123"/>
      <point x="281" y="271"/>
      <point x="281" y="546" type="curve" smooth="yes"/>
      <point x="281" y="1457" type="line"/>
      <point x="105" y="1457" type="line"/>
      <point x="105" y="543" type="line" smooth="yes"/>
      <point x="105" y="211"/>
      <point x="265" y="-20"/>
    </contour>
    <contour>
      <point x="798" y="21" type="move" name="ogonek"/>
    </contour>
    <contour>
      <point x="650" y="1" type="move" name="bot"/>
    </contour>
    <contour>
      <point x="665" y="1456" type="move" name="top"/>
    </contour>
  </outline>
</glyph>
<glyph name="Y" format="1">
  <advance width="1202"/>
  <unicode hex="0059"/>
  <outline>
    <contour>
      <point x="517" y="0" type="line"/>
      <point x="693" y="0" type="line"/>
      <point x="693" y="566" type="line"/>
      <point x="658" y="443" type="line"/>
      <point x="1202" y="1456" type="line"/>
      <point x="1028" y="1456" type="line"/>
      <point x="577" y="608" type="line"/>
      <point x="633" y="608" type="line"/>
      <point x="166" y="1456" type="line"/>
      <point x="0" y="1456" type="line"/>
      <point x="556" y="441" type="line"/>
      <point x="517" y="568" type="line"/>
    </contour>
    <contour>
      <point x="604" y="1456" type="move" name="top"/>
    </contour>
  </outline>
</glyph>
<glyph name="c" format="1">
  <advance width="1022"/>
  <unicode hex="0063"/>
  <outline>
    <contour>
      <point x="572" y="1106" type="curve" smooth="yes"/>
      <point x="276" y="1106"/>
      <point x="87" y="888"/>
      <point x="87" y="543" type="curve"/>
      <point x="257" y="543" type="line"/>
      <point x="257" y="815"/>
      <point x="363" y="980"/>
      <point x="579" y="980" type="curve" smooth="yes"/>
      <point x="720" y="980"/>
      <point x="790" y="911"/>
      <point x="842" y="820" type="curve"/>
      <point x="856" y="820" type="line"/>
      <point x="958" y="879" type="line"/>
      <point x="915" y="982"/>
      <point x="813" y="1106"/>
    </contour>
    <contour>
      <point x="572" y="-20" type="curve" smooth="yes"/>
      <point x="813" y="-20"/>
      <point x="916" y="104"/>
      <point x="958" y="207" type="curve"/>
      <point x="855" y="263" type="line"/>
      <point x="841" y="263" type="line"/>
      <point x="789" y="172"/>
      <point x="720" y="106"/>
      <point x="579" y="106" type="curve" smooth="yes"/>
      <point x="363" y="106"/>
      <point x="257" y="271"/>
      <point x="257" y="543" type="curve"/>
      <point x="87" y="543" type="line"/>
      <point x="87" y="198"/>
      <point x="276" y="-20"/>
    </contour>
    <contour>
      <point x="589" y="1083" type="move" name="top"/>
    </contour>
    <contour>
      <point x="608" y="1" type="move" name="bot"/>
    </contour>
  </outline>
</glyph>
<glyph name="d" format="1">
  <advance width="1153"/>
  <unicode hex="0064"/>
  <outline>
    <contour>
      <point x="566" y="980" type="curve" smooth="yes"/>
      <point x="686" y="980"/>
      <point x="783" y="936"/>
      <point x="852" y="840" type="curve"/>
      <point x="852" y="182" type="line"/>
      <point x="876" y="255" type="line"/>
      <point x="811" y="152"/>
      <point x="700" y="106"/>
      <point x="568" y="106" type="curve" smooth="yes"/>
      <point x="354" y="106"/>
      <point x="257" y="275"/>
      <point x="257" y="548" type="curve" smooth="yes"/>
      <point x="257" y="812"/>
      <point x="356" y="980"/>
    </contour>
    <contour>
      <point x="921" y="196" type="curve"/>
      <point x="859" y="173" type="line"/>
      <point x="875" y="0" type="line"/>
      <point x="1016" y="0" type="line"/>
      <point x="1016" y="1559" type="line"/>
      <point x="845" y="1547" type="line"/>
      <point x="845" y="1154" type="line"/>
      <point x="853" y="876" type="line"/>
      <point x="916" y="884" type="line"/>
      <point x="864" y="1002"/>
      <point x="746" y="1106"/>
      <point x="561" y="1103" type="curve" smooth="yes"/>
      <point x="266" y="1106"/>
      <point x="87" y="886"/>
      <point x="87" y="545" type="curve"/>
      <point x="87" y="207"/>
      <point x="253" y="-23"/>
      <point x="563" y="-20" type="curve" smooth="yes"/>
      <point x="687" y="-19"/>
      <point x="856" y="46"/>
    </contour>
    <contour>
      <point x="927" y="1334" type="move" name="mid"/>
    </contour>
  </outline>
</glyph>
<glyph name="h" format="1">
  <advance width="1142"/>
  <unicode hex="0068"/>
  <outline>
    <contour>
      <point x="133" y="0" type="line"/>
      <point x="296" y="0" type="line"/>
      <point x="296" y="593" type="line" smooth="yes"/>
      <point x="296" y="782"/>
      <point x="372" y="980"/>
      <point x="626" y="980" type="curve" smooth="yes"/>
      <point x="788" y="980"/>
      <point x="848" y="873"/>
      <point x="848" y="664" type="curve" smooth="yes"/>
      <point x="848" y="0" type="line"/>
      <point x="1014" y="0" type="line"/>
      <point x="1014" y="670" type="line" smooth="yes"/>
      <point x="1014" y="948"/>
      <point x="885" y="1106"/>
      <point x="653" y="1106" type="curve" smooth="yes"/>
      <point x="491" y="1106"/>
      <point x="340" y="1046"/>
      <point x="269" y="824" type="curve"/>
      <point x="289" y="815" type="line"/>
      <point x="297" y="1146" type="line"/>
      <point x="297" y="1560" type="line"/>
      <point x="133" y="1547" type="line"/>
    </contour>
    <contour>
      <point x="642" y="1384" type="move" name="top"/>
    </contour>
    <contour>
      <point x="215" y="1284" type="move" name="mid"/>
    </contour>
  </outline>
</glyph>
<glyph name="k" format="1">
  <advance width="1013"/>
  <unicode hex="006B"/>
  <outline>
    <contour>
      <point x="136" y="0" type="line"/>
      <point x="300" y="0" type="line"/>
      <point x="300" y="438" type="line"/>
      <point x="271" y="372" type="line"/>
      <point x="455" y="529" type="line"/>
      <point x="403" y="538" type="line"/>
      <point x="849" y="0" type="line"/>
      <point x="1028" y="0" type="line"/>
      <point x="1028" y="24" type="line"/>
      <point x="516" y="621" type="line"/>
      <point x="512" y="556" type="line"/>
      <point x="994" y="1058" type="line"/>
      <point x="994" y="1082" type="line"/>
      <point x="805" y="1082" type="line"/>
      <point x="259" y="499" type="line"/>
      <point x="293" y="486" type="line"/>
      <point x="300" y="757" type="line"/>
      <point x="300" y="1560" type="line"/>
      <point x="136" y="1547" type="line"/>
    </contour>
    <contour>
      <point x="555" y="0" type="move" name="bot"/>
    </contour>
  </outline>
</glyph>
<glyph name="o" format="1">
  <advance width="1142"/>
  <unicode hex="006F"/>
  <outline>
    <contour>
      <point x="571" y="1106" type="curve"/>
      <point x="255" y="1106"/>
      <point x="87" y="886"/>
      <point x="87" y="542" type="curve" smooth="yes"/>
      <point x="87" y="206"/>
      <point x="259" y="-20"/>
      <point x="571" y="-20" type="curve"/>
      <point x="883" y="-20"/>
      <point x="1055" y="206"/>
      <point x="1055" y="542" type="curve" smooth="yes"/>
      <point x="1055" y="886"/>
      <point x="887" y="1106"/>
    </contour>
    <contour>
      <point x="571" y="106" type="curve"/>
      <point x="350" y="106"/>
      <point x="257" y="294"/>
      <point x="257" y="541" type="curve" smooth="yes"/>
      <point x="257" y="794"/>
      <point x="351" y="980"/>
      <point x="571" y="980" type="curve"/>
      <point x="791" y="980"/>
      <point x="885" y="794"/>
      <point x="885" y="541" type="curve" smooth="yes"/>
      <point x="885" y="294"/>
      <point x="792" y="106"/>
    </contour>
    <contour>
      <point x="571" y="1" type="move" name="bot"/>
    </contour>
    <contour>
      <point x="571" y="1082" type="move" name="top"/>
    </contour>
  </outline>
</glyph>
<glyph name="y" format="1">
  <advance width="1045"/>
  <unicode hex="0079"/>
  <outline>
    <contour>
      <point x="444" y="-410" type="line"/>
      <point x="1032" y="1082" type="line"/>
      <point x="869" y="1082" type="line"/>
      <point x="869" y="1082"/>
      <point x="298" y="-377"/>
      <point x="298" y="-377" type="curve"/>
    </contour>
    <contour>
      <point x="5" y="1082" type="line"/>
      <point x="458" y="16" type="line"/>
      <point x="603" y="59" type="line"/>
      <point x="177" y="1082" type="line"/>
    </contour>
    <contour>
      <point x="542" y="1082" type="move" name="top"/>
    </contour>
  </outline>
</glyph>
<glyph name="guillemotleft" format="1">
  <advance width="938"/>
  <unicode hex="00AB"/>
  <outline>
    <contour>
      <point x="342" y="148" type="line"/>
      <point x="499" y="148" type="line"/>
      <point x="223" y="552" type="line"/>
      <point x="507" y="953" type="line"/>
      <point x="346" y="953" type="line"/>
      <point x="58" y="549" type="line"/>
    </contour>
    <contour>
      <point x="695" y="148" type="line"/>
      <point x="852" y="148" type="line"/>
      <point x="575" y="552" type="line"/>
      <point x="859" y="953" type="line"/>
      <point x="698" y="953" type="line"/>
      <point x="411" y="549" type="line"/>
    </contour>
  </outline>
</glyph>
<glyph name="logicalnot" format="1">
  <advance width="1183"/>
  <unicode hex="00AC"/>
  <outline>
    <contour>
      <point x="913" y="253" type="line"/>
      <point x="1034" y="253" type="line"/>
      <point x="1034" y="804" type="line"/>
      <point x="78" y="804" type="line"/>
      <point x="78" y="676" type="line"/>
      <point x="913" y="676" type="line"/>
    </contour>
  </outline>
</glyph>
<glyph name="plusminus" format="1">
  <advance width="1101"/>
  <unicode hex="00B1"/>
  <outline>
    <contour>
      <point x="471" y="212" type="line"/>
      <point x="597" y="212" type="line"/>
      <point x="597" y="610" type="line"/>
      <point x="962" y="610" type="line"/>
      <point x="962" y="729" type="line"/>
      <point x="596" y="729" type="line"/>
      <point x="596" y="1117" type="line"/>
      <point x="471" y="1117" type="line"/>
      <point x="471" y="729" type="line"/>
      <point x="99" y="729" type="line"/>
      <point x="99" y="610" type="line"/>
      <point x="471" y="610" type="line"/>
    </contour>
    <contour>
      <point x="78" y="0" type="line"/>
      <point x="78" y="118" type="line"/>
      <point x="1007" y="118" type="line"/>
      <point x="1007" y="0" type="line"/>
    </contour>
  </outline>
</glyph>
<glyph name="uni00B3" format="1">
  <advance width="775"/>
  <unicode hex="00B3"/>
  <outline>
    <contour>
      <point x="385" y="615" type="curve" smooth="yes"/>
      <point x="530" y="615"/>
      <point x="646" y="712"/>
      <point x="646" y="873" type="curve" smooth="yes"/>
      <point x="646" y="973"/>
      <point x="588" y="1053"/>
      <point x="483" y="1084" type="curve"/>
      <point x="589" y="1111"/>
      <point x="627" y="1198"/>
      <point x="627" y="1262" type="curve" smooth="yes"/>
      <point x="627" y="1419"/>
      <point x="505" y="1496"/>
      <point x="380" y="1496" type="curve" smooth="yes"/>
      <point x="293" y="1496"/>
      <point x="178" y="1461"/>
      <point x="122" y="1399" type="curve"/>
      <point x="176" y="1310" type="line"/>
      <point x="216" y="1351"/>
      <point x="308" y="1381"/>
      <point x="375" y="1381" type="curve" smooth="yes"/>
      <point x="445" y="1381"/>
      <point x="496" y="1342"/>
      <point x="496" y="1260" type="curve" smooth="yes"/>
      <point x="496" y="1177"/>
      <point x="419" y="1135"/>
      <point x="319" y="1135" type="curve" smooth="yes"/>
      <point x="248" y="1135" type="line"/>
      <point x="248" y="1019" type="line"/>
      <point x="322" y="1019" type="line" smooth="yes"/>
      <point x="432" y="1019"/>
      <point x="515" y="972"/>
      <point x="515" y="877" type="curve" smooth="yes"/>
      <point x="515" y="778"/>
      <point x="452" y="731"/>
      <point x="373" y="731" type="curve" smooth="yes"/>
      <point x="311" y="731"/>
      <point x="222" y="757"/>
      <point x="173" y="803" type="curve"/>
      <point x="124" y="704" type="line"/>
      <point x="184" y="641"/>
      <point x="303" y="615"/>
    </contour>
  </outline>
</glyph>
<glyph name="paragraph" format="1">
  <advance width="1020"/>
  <unicode hex="00B6"/>
  <outline>
    <contour>
      <point x="434" y="-20" type="line"/>
      <point x="558" y="-20" type="line"/>
      <point x="558" y="1334" type="line"/>
      <point x="734" y="1334" type="line"/>
      <point x="734" y="-20" type="line"/>
      <point x="858" y="-20" type="line"/>
      <point x="858" y="1334" type="line"/>
      <point x="974" y="1334" type="line"/>
      <point x="974" y="1456" type="line"/>
      <point x="465" y="1456" type="line" smooth="yes"/>
      <point x="145" y="1456"/>
      <point x="52" y="1276"/>
      <point x="52" y="1117" type="curve" smooth="yes"/>
      <point x="52" y="942"/>
      <point x="153" y="771"/>
      <point x="434" y="771" type="curve"/>
    </contour>
  </outline>
</glyph>
<glyph name="uni00B9" format="1">
  <advance width="734"/>
  <unicode hex="00B9"/>
  <outline>
    <contour>
      <point x="158" y="598" type="line"/>
      <point x="589" y="598" type="line"/>
      <point x="589" y="710" type="line"/>
      <point x="450" y="710" type="line"/>
      <point x="450" y="1482" type="line"/>
      <point x="340" y="1482" type="line"/>
      <point x="298" y="1442"/>
      <point x="184" y="1391"/>
      <point x="148" y="1378" type="curve"/>
      <point x="148" y="1264" type="line"/>
      <point x="182" y="1277"/>
      <point x="275" y="1314"/>
      <point x="312" y="1338" type="curve"/>
      <point x="312" y="710" type="line"/>
      <point x="158" y="710" type="line"/>
    </contour>
  </outline>
</glyph>
<glyph name="AE" format="1">
  <advance width="1428"/>
  <unicode hex="00C6"/>
  <outline>
    <contour>
      <point x="665" y="0" type="line"/>
      <point x="1455" y="0" type="line"/>
      <point x="1467" y="137" type="line"/>
      <point x="834" y="137" type="line"/>
      <point x="834" y="696" type="line"/>
      <point x="1384" y="696" type="line"/>
      <point x="1384" y="832" type="line"/>
      <point x="834" y="832" type="line"/>
      <point x="834" y="1321" type="line"/>
      <point x="1446" y="1321" type="line"/>
      <point x="1452" y="1456" type="line"/>
      <point x="581" y="1456" type="line"/>
      <point x="-55" y="0" type="line"/>
      <point x="121" y="0" type="line"/>
      <point x="322" y="472" type="line"/>
      <point x="665" y="472" type="line"/>
    </contour>
    <contour>
      <point x="665" y="597" type="line"/>
      <point x="370" y="597" type="line"/>
      <point x="665" y="1301" type="line"/>
    </contour>
    <contour>
      <point x="991" y="1496.5" type="move" name="top"/>
    </contour>
  </outline>
</glyph>
<glyph name="dcroat" format="1">
  <advance width="775"/>
  <unicode hex="0111"/>
  <outline>
    <contour>
      <point x="128" y="1263" type="line"/>
      <point x="623" y="1263" type="line"/>
      <point x="623" y="1375" type="line"/>
      <point x="128" y="1375" type="line"/>
    </contour>
    <component base="d"/>
  </outline>
</glyph>
<glyph name="Eng" format="1">
  <advance width="1387"/>
  <unicode hex="014A"/>
  <outline>
    <contour>
      <point x="818" y="-316" type="curve" smooth="yes"/>
      <point x="787" y="-316"/>
      <point x="738" y="-314"/>
      <point x="600" y="-301" type="curve"/>
      <point x="578" y="-170" type="line"/>
      <point x="731" y="-180"/>
      <point x="741" y="-181"/>
      <point x="764" y="-181" type="curve" smooth="yes"/>
      <point x="1056" y="-181"/>
      <point x="1076" y="-104"/>
      <point x="1076" y="181" type="curve" smooth="yes"/>
      <point x="1076" y="1012" type="line" smooth="yes"/>
      <point x="1076" y="1281"/>
      <point x="1002" y="1370"/>
      <point x="780" y="1370" type="curve" smooth="yes"/>
      <point x="546" y="1370"/>
      <point x="382" y="1234"/>
      <point x="288" y="1093" type="curve"/>
      <point x="288" y="8" type="line"/>
      <point x="151" y="8" type="line"/>
      <point x="148" y="1504" type="line"/>
      <point x="275" y="1504" type="line"/>
      <point x="291" y="1277" type="line"/>
      <point x="484" y="1485"/>
      <point x="657" y="1520"/>
      <point x="829" y="1520" type="curve" smooth="yes"/>
      <point x="1082" y="1520"/>
      <point x="1213" y="1346"/>
      <point x="1213" y="1016" type="curve" smooth="yes"/>
      <point x="1213" y="173" type="line" smooth="yes"/>
      <point x="1213" y="-130"/>
      <point x="1164" y="-316"/>
    </contour>
  </outline>
</glyph>
<glyph name="eng" format="1">
  <advance width="1101"/>
  <unicode hex="014B"/>
  <outline>
    <contour>
      <point x="599" y="-282" type="line"/>
      <point x="666" y="-282" type="line" smooth="yes"/>
      <point x="942" y="-282"/>
      <point x="982" y="-129"/>
      <point x="982" y="172" type="curve" smooth="yes"/>
      <point x="982" y="670" type="line" smooth="yes"/>
      <point x="982" y="965"/>
      <point x="879" y="1114"/>
      <point x="635" y="1114" type="curve" smooth="yes"/>
      <point x="483" y="1114"/>
      <point x="373" y="1055"/>
      <point x="298" y="932" type="curve"/>
      <point x="279" y="1093" type="line"/>
      <point x="135" y="1093" type="line"/>
      <point x="135" y="7" type="line"/>
      <point x="302" y="7" type="line"/>
      <point x="302" y="612" type="line" smooth="yes"/>
      <point x="302" y="661"/>
      <point x="305" y="706"/>
      <point x="309" y="750" type="curve"/>
      <point x="340" y="883"/>
      <point x="419" y="984"/>
      <point x="607" y="984" type="curve" smooth="yes"/>
      <point x="777" y="984"/>
      <point x="816" y="871"/>
      <point x="816" y="689" type="curve" smooth="yes"/>
      <point x="816" y="119" type="line" smooth="yes"/>
      <point x="816" y="-100"/>
      <point x="798" y="-129"/>
      <point x="626" y="-129" type="curve" smooth="yes"/>
      <point x="591" y="-129" type="line"/>
    </contour>
  </outline>
</glyph>
<glyph name="hungarumlaut" format="1">
  <advance width="816"/>
  <unicode hex="02DD"/>
  <outline>
    <contour>
      <point x="429" y="1058" type="line"/>
      <point x="515" y="1058" type="line"/>
      <point x="798" y="1470" type="line"/>
      <point x="610" y="1470" type="line"/>
    </contour>
    <contour>
      <point x="173" y="1058" type="line"/>
      <point x="257" y="1058" type="line"/>
      <point x="499" y="1470" type="line"/>
      <point x="323" y="1470" type="line"/>
    </contour>
    <contour>
      <point x="327" y="945.25" type="move" name="_top"/>
    </contour>
  </outline>
</glyph>
<glyph name="uni0306" format="1">
  <advance width="775"/>
  <unicode hex="0306"/>
  <outline>
    <contour>
      <point x="455" y="1117" type="curve" smooth="yes"/>
      <point x="580" y="1117"/>
      <point x="690" y="1186"/>
      <point x="690" y="1356" type="curve"/>
      <point x="588" y="1356" type="line"/>
      <point x="588" y="1256"/>
      <point x="523" y="1217"/>
      <point x="455" y="1217" type="curve" smooth="yes"/>
      <point x="387" y="1217"/>
      <point x="326" y="1256"/>
      <point x="326" y="1356" type="curve"/>
      <point x="224" y="1356" type="line"/>
      <point x="224" y="1186"/>
      <point x="331" y="1117"/>
    </contour>
    <contour>
      <point x="454" y="1005.275" type="move" name="_top"/>
    </contour>
  </outline>
</glyph>
<glyph name="uni030A" format="1">
  <advance width="693"/>
  <unicode hex="030A"/>
  <outline>
    <contour>
      <point x="408" y="1128" type="curve" smooth="yes"/>
      <point x="514" y="1128"/>
      <point x="591" y="1208"/>
      <point x="591" y="1308" type="curve" smooth="yes"/>
      <point x="591" y="1409"/>
      <point x="515" y="1489"/>
      <point x="408" y="1489" type="curve" smooth="yes"/>
      <point x="301" y="1489"/>
      <point x="224" y="1409"/>
      <point x="224" y="1308" type="curve" smooth="yes"/>
      <point x="224" y="1208"/>
      <point x="302" y="1128"/>
    </contour>
    <contour>
      <point x="408" y="1205" type="curve" smooth="yes"/>
      <point x="352" y="1205"/>
      <point x="312" y="1251"/>
      <point x="312" y="1307" type="curve" smooth="yes"/>
      <point x="312" y="1363"/>
      <point x="353" y="1409"/>
      <point x="408" y="1409" type="curve" smooth="yes"/>
      <point x="464" y="1409"/>
      <point x="504" y="1363"/>
      <point x="504" y="1307" type="curve" smooth="yes"/>
      <point x="504" y="1251"/>
      <point x="464" y="1205"/>
    </contour>
    <contour>
      <point x="409" y="1005.0" type="move" name="_top"/>
    </contour>
  </outline>
</glyph>
<glyph name="Lambda" format="1">
  <advance width="1224"/>
  <unicode hex="039B"/>
  <outline>
    <contour>
      <point x="-11" y="0" type="line"/>
      <point x="521" y="1482" type="line"/>
      <point x="698" y="1482" type="line"/>
      <point x="1233" y="0" type="line"/>
      <point x="1061" y="0" type="line"/>
      <point x="609" y="1302" type="line"/>
      <point x="164" y="0" type="line"/>
    </contour>
  </outline>
</glyph>
<glyph name="afii10021" format="1">
  <advance width="1265"/>
  <unicode hex="0414"/>
  <outline>
    <contour>
      <point x="-100" y="-294" type="line"/>
      <point x="-100" y="98" type="line"/>
      <point x="53" y="98" type="line"/>
      <point x="145" y="164"/>
      <point x="191" y="393"/>
      <point x="243" y="1125" type="curve" smooth="yes"/>
      <point x="270" y="1504" type="line"/>
      <point x="1099" y="1504" type="line"/>
      <point x="1099" y="98" type="line"/>
      <point x="1232" y="98" type="line"/>
      <point x="1232" y="-294" type="line"/>
      <point x="1123" y="-294" type="line"/>
      <point x="1123" y="7" type="line"/>
      <point x="4" y="7" type="line"/>
      <point x="4" y="-294" type="line"/>
    </contour>
    <contour>
      <point x="382" y="1414" type="line"/>
      <point x="357" y="1113" type="line" smooth="yes"/>
      <point x="319" y="659"/>
      <point x="294" y="270"/>
      <point x="202" y="98" type="curve"/>
      <point x="977" y="98" type="line"/>
      <point x="977" y="1415" type="line"/>
    </contour>
  </outline>
</glyph>
<glyph name="afii10037" format="1">
  <advance width="938"/>
  <unicode hex="0423"/>
  <outline>
    <contour>
      <point x="485" y="624" type="line"/>
      <point x="868" y="1476" type="line"/>
      <point x="984" y="1476" type="line"/>
      <point x="299" y="0" type="line"/>
      <point x="184" y="0" type="line"/>
      <point x="434" y="522" type="line"/>
      <point x="-68" y="1476" type="line"/>
      <point x="40" y="1476" type="line"/>
    </contour>
  </outline>
</glyph>
<glyph name="afii10078" format="1">
  <advance width="1265"/>
  <unicode hex="043C"/>
  <outline>
    <contour>
      <point x="148" y="0" type="line"/>
      <point x="148" y="1081" type="line"/>
      <point x="257" y="1081" type="line"/>
      <point x="638" y="298" type="line"/>
      <point x="1016" y="1081" type="line"/>
      <point x="1122" y="1081" type="line"/>
      <point x="1122" y="0" type="line"/>
      <point x="1009" y="0" type="line"/>
      <point x="1009" y="839" type="line"/>
      <point x="682" y="166" type="line"/>
      <point x="591" y="166" type="line"/>
      <point x="261" y="839" type="line"/>
      <point x="261" y="0" type="line"/>
    </contour>
  </outline>
</glyph>
<glyph name="afii10084" format="1">
  <advance width="979"/>
  <unicode hex="0442"/>
  <outline>
    <contour>
      <point x="408" y="0" type="line"/>
      <point x="408" y="978" type="line"/>
      <point x="109" y="978" type="line"/>
      <point x="109" y="1081" type="line"/>
      <point x="848" y="1081" type="line"/>
      <point x="848" y="978" type="line"/>
      <point x="544" y="978" type="line"/>
      <point x="544" y="0" type="line"/>
    </contour>
  </outline>
</glyph>
<glyph name="summation" format="1">
  <advance width="938"/>
  <unicode hex="2211"/>
  <outline>
    <contour>
      <point x="1" y="-148" type="line"/>
      <point x="963" y="-148" type="line"/>
      <point x="963" y="4" type="line"/>
      <point x="232" y="4" type="line"/>
      <point x="704" y="664" type="line"/>
      <point x="249" y="1357" type="line"/>
      <point x="916" y="1357" type="line"/>
      <point x="916" y="1500" type="line"/>
      <point x="23" y="1500" type="line"/>
      <point x="23" y="1405" type="line"/>
      <point x="507" y="671" type="line"/>
      <point x="1" y="-57" type="line"/>
    </contour>
  </outline>
</glyph>
<glyph name="infinity" format="1">
  <advance width="1591"/>
  <unicode hex="221E"/>
  <outline>
    <contour>
      <point x="1199" y="374" type="curve" smooth="yes"/>
      <point x="1351" y="374"/>
      <point x="1423" y="499"/>
      <point x="1423" y="657" type="curve" smooth="yes"/>
      <point x="1423" y="781"/>
      <point x="1328" y="886"/>
      <point x="1195" y="886" type="curve" smooth="yes"/>
      <point x="1060" y="886"/>
      <point x="951" y="763"/>
      <point x="864" y="631" type="curve"/>
      <point x="984" y="463"/>
      <point x="1075" y="374"/>
    </contour>
    <contour>
      <point x="390" y="374" type="curve" smooth="yes"/>
      <point x="519" y="374"/>
      <point x="632" y="491"/>
      <point x="724" y="629" type="curve"/>
      <point x="633" y="776"/>
      <point x="523" y="886"/>
      <point x="383" y="886" type="curve" smooth="yes"/>
      <point x="239" y="886"/>
      <point x="150" y="769"/>
      <point x="150" y="631" type="curve" smooth="yes"/>
      <point x="150" y="502"/>
      <point x="246" y="374"/>
    </contour>
    <contour>
      <point x="388" y="247" type="curve" smooth="yes"/>
      <point x="167" y="247"/>
      <point x="39" y="434"/>
      <point x="39" y="652" type="curve" smooth="yes"/>
      <point x="39" y="851"/>
      <point x="192" y="1009"/>
      <point x="384" y="1009" type="curve" smooth="yes"/>
      <point x="551" y="1009"/>
      <point x="674" y="900"/>
      <point x="794" y="737" type="curve"/>
      <point x="906" y="895"/>
      <point x="1029" y="1009"/>
      <point x="1199" y="1009" type="curve" smooth="yes"/>
      <point x="1420" y="1009"/>
      <point x="1543" y="852"/>
      <point x="1543" y="634" type="curve" smooth="yes"/>
      <point x="1543" y="406"/>
      <point x="1391" y="247"/>
      <point x="1197" y="247" type="curve" smooth="yes"/>
      <point x="1049" y="247"/>
      <point x="927" y="336"/>
      <point x="794" y="518" type="curve"/>
      <point x="677" y="360"/>
      <point x="551" y="247"/>
    </contour>
  </outline>
</glyph>
<glyph name="notequal" format="1">
  <advance width="1020"/>
  <unicode hex="2260"/>
  <outline>
    <contour>
      <point x="279" y="48" type="line"/>
      <point x="422" y="353" type="line"/>
      <point x="966" y="353" type="line"/>
      <point x="960" y="470" type="line"/>
      <point x="473" y="470" type="line"/>
      <point x="635" y="788" type="line"/>
      <point x="966" y="788" type="line"/>
      <point x="957" y="907" type="line"/>
      <point x="686" y="907" type="line"/>
      <point x="800" y="1189" type="line"/>
      <point x="704" y="1202" type="line"/>
      <point x="566" y="907" type="line"/>
      <point x="39" y="907" type="line"/>
      <point x="46" y="788" type="line"/>
      <point x="514" y="788" type="line"/>
      <point x="357" y="471" type="line"/>
      <point x="40" y="471" type="line"/>
      <point x="46" y="353" type="line"/>
      <point x="300" y="353" type="line"/>
      <point x="185" y="65" type="line"/>
    </contour>
  </outline>
</glyph>
<glyph name="dotlessj" format="1">
  <advance width="775"/>
  <outline>
    <contour>
      <point x="243" y="-378" type="line"/>
      <point x="302" y="-371" type="line" smooth="yes"/>
      <point x="522" y="-344"/>
      <point x="602" y="-269"/>
      <point x="602" y="-10" type="curve" smooth="yes"/>
      <point x="602" y="1082" type="line"/>
      <point x="438" y="1082" type="line"/>
      <point x="438" y="21" type="line" smooth="yes"/>
      <point x="438" y="-169"/>
      <point x="435" y="-205"/>
      <point x="286" y="-235" type="curve" smooth="yes"/>
      <point x="224" y="-247" type="line"/>
    </contour>
    <contour>
      <point x="525" y="1082" type="move" name="top"/>
    </contour>
  </outline>
</glyph>
<glyph name="u.alt" format="1">
  <advance width="1101"/>
  <outline>
    <contour>
      <point x="555" y="-18" type="curve" smooth="yes"/>
      <point x="260" y="-18"/>
      <point x="122" y="127"/>
      <point x="122" y="437" type="curve" smooth="yes"/>
      <point x="122" y="1085" type="line"/>
      <point x="288" y="1085" type="line"/>
      <point x="288" y="439" type="line" smooth="yes"/>
      <point x="288" y="226"/>
      <point x="350" y="109"/>
      <point x="555" y="109" type="curve" smooth="yes"/>
      <point x="760" y="109"/>
      <point x="822" y="226"/>
      <point x="822" y="439" type="curve" smooth="yes"/>
      <point x="822" y="1085" type="line"/>
      <point x="988" y="1085" type="line"/>
      <point x="988" y="437" type="line" smooth="yes"/>
      <point x="988" y="125"/>
      <point x="851" y="-18"/>
    </contour>
  </outline>
</glyph>
